  <svg
    width="289"
    height="247"
    viewBox="0 0 289 247"
    fill="none"
    xmlns="http://www.w3.org/2000/svg"
  >
    <path
      d="M124.584 164.047L74.1969 195.269L3.0427 129.356M124.584 164.047L119.817 211.458L121.52 213M124.584 164.047L49.6845 101.604M3.0427 129.356L49.6845 101.604M3.0427 129.356L1 178.695M49.6845 101.604V100.833M49.6845 100.833L125.945 162.505L121.52 213M49.6845 100.833L217.867 1L288 52.6509L282.553 98.1345L121.52 213"
      stroke="black"
    />
    <path
      d="M126.354 162.01L288 52M74.7355 194.82L71 245L120.241 211.032"
      stroke="black"
    />
    <path d="M71 245L1 178" stroke="black" />
    <path
      d="M126.148 156L56 100.231L217.985 6L280 51L126.148 156Z"
      fill="#021B89"
    />
    <path
      d="M125 164L75.0577 194.769L72 244L120.923 211.308L125 164Z"
      fill="#AFA9AB"
      fill-opacity="0.4"
      stroke="black"
    />
  </svg>
