 <svg
    width="679"
    height="721"
    viewBox="0 0 679 721"
    fill="none"
    xmlns="http://www.w3.org/2000/svg"
  >
    <rect
      x="0.206311"
      y="1.40523"
      width="412.453"
      height="583.655"
      rx="38"
      transform="matrix(0.799741 0.600346 -0.59343 0.804886 348.42 0.150322)"
      fill="#FBB03B"
    />
    <rect
      x="0.206311"
      y="1.40523"
      width="412.453"
      height="583.655"
      rx="38"
      transform="matrix(0.799741 0.600346 -0.59343 0.804886 348.42 0.150322)"
      stroke="black"
      stroke-width="2"
    />
    <rect
      x="0.206311"
      y="1.40523"
      width="412.453"
      height="583.655"
      rx="38"
      transform="matrix(0.799741 0.600346 -0.59343 0.804886 348.42 0.150322)"
      stroke="black"
      stroke-opacity="0.2"
      stroke-width="2"
    />
    <ellipse
      cx="4.21348"
      cy="4.2244"
      rx="4.21348"
      ry="4.2244"
      transform="matrix(0.799741 0.600346 -0.59343 0.804886 35.8169 432.487)"
      fill="black"
    />
    <ellipse
      cx="4.21348"
      cy="4.2244"
      rx="4.21348"
      ry="4.2244"
      transform="matrix(0.799741 0.600346 -0.59343 0.804886 52.4536 409.923)"
      fill="black"
    />
    <ellipse
      cx="4.21348"
      cy="4.2244"
      rx="4.21348"
      ry="4.2244"
      transform="matrix(0.799741 0.600346 -0.59343 0.804886 68.1787 388.594)"
      fill="black"
    />
    <ellipse
      cx="4.21348"
      cy="4.2244"
      rx="4.21348"
      ry="4.2244"
      transform="matrix(0.799741 0.600346 -0.59343 0.804886 84.5874 366.339)"
      fill="black"
    />
    <ellipse
      cx="4.21348"
      cy="4.2244"
      rx="4.21348"
      ry="4.2244"
      transform="matrix(0.799741 0.600346 -0.59343 0.804886 117.405 321.828)"
      fill="black"
    />
    <path
      d="M292.778 49.307L312.196 63.8839L310.283 66.4791L290.864 51.9022L292.778 49.307ZM308.731 27.6696L328.149 42.2465L326.236 44.8418L306.817 30.2649L308.731 27.6696ZM276.369 71.5625L295.787 86.1394L293.874 88.7347L274.456 74.1578L276.369 71.5625ZM260.188 93.509L279.607 108.086L277.693 110.681L258.275 96.1043L260.188 93.509ZM243.894 115.61L263.312 130.187L261.399 132.782L241.98 118.205L243.894 115.61ZM228.055 137.093L247.473 151.67L245.56 154.265L226.141 139.688L228.055 137.093ZM211.646 159.348L231.064 173.925L229.151 176.521L209.732 161.944L211.646 159.348ZM195.807 180.831L215.225 195.408L213.312 198.003L193.894 183.426L195.807 180.831ZM179.512 202.932L198.931 217.509L197.017 220.104L177.599 205.527L179.512 202.932ZM163.445 224.724L182.864 239.301L180.95 241.896L161.532 227.319L163.445 224.724ZM146.923 247.134L166.341 261.711L164.428 264.306L145.009 249.729L146.923 247.134ZM130.856 268.926L150.274 283.503L148.361 286.098L128.943 271.521L130.856 268.926ZM115.017 290.409L134.435 304.986L132.522 307.581L113.104 293.004L115.017 290.409ZM99.0642 312.046L118.483 326.623L116.569 329.218L97.1508 314.642L99.0642 312.046ZM82.4276 334.611L101.846 349.188L99.9326 351.783L80.5142 337.206L82.4276 334.611ZM66.3608 356.403L85.7792 370.98L83.8658 373.575L64.4474 358.998L66.3608 356.403ZM49.9521 378.658L69.3706 393.235L67.4571 395.831L48.0387 381.254L49.9521 378.658ZM34.2272 399.987L53.6456 414.564L51.7321 417.159L32.3137 402.582L34.2272 399.987ZM17.8185 422.242L37.2369 436.819L35.3235 439.414L15.905 424.838L17.8185 422.242Z"
      fill="black"
      stroke="black"
    />
    <ellipse
      cx="4.21348"
      cy="4.2244"
      rx="4.21348"
      ry="4.2244"
      transform="matrix(0.799741 0.600346 -0.59343 0.804886 326.843 37.76)"
      fill="black"
    />
    <ellipse
      cx="4.21348"
      cy="4.2244"
      rx="4.21348"
      ry="4.2244"
      transform="matrix(0.799741 0.600346 -0.59343 0.804886 261.664 126.164)"
      fill="black"
    />
    <ellipse
      cx="4.21348"
      cy="4.2244"
      rx="4.21348"
      ry="4.2244"
      transform="matrix(0.799741 0.600346 -0.59343 0.804886 246.167 147.183)"
      fill="black"
    />
    <ellipse
      cx="4.21348"
      cy="4.2244"
      rx="4.21348"
      ry="4.2244"
      transform="matrix(0.799741 0.600346 -0.59343 0.804886 230.214 168.821)"
      fill="black"
    />
    <ellipse
      cx="4.21348"
      cy="4.2244"
      rx="4.21348"
      ry="4.2244"
      transform="matrix(0.799741 0.600346 -0.59343 0.804886 214.262 190.458)"
      fill="black"
    />
    <ellipse
      cx="4.21348"
      cy="4.2244"
      rx="4.21348"
      ry="4.2244"
      transform="matrix(0.799741 0.600346 -0.59343 0.804886 197.625 213.023)"
      fill="black"
    />
    <ellipse
      cx="4.21348"
      cy="4.2244"
      rx="4.21348"
      ry="4.2244"
      transform="matrix(0.799741 0.600346 -0.59343 0.804886 181.216 235.278)"
      fill="black"
    />
    <ellipse
      cx="4.21348"
      cy="4.2244"
      rx="4.21348"
      ry="4.2244"
      transform="matrix(0.799741 0.600346 -0.59343 0.804886 165.035 257.225)"
      fill="black"
    />
    <ellipse
      cx="4.21348"
      cy="4.2244"
      rx="4.21348"
      ry="4.2244"
      transform="matrix(0.799741 0.600346 -0.59343 0.804886 148.854 279.171)"
      fill="black"
    />
    <ellipse
      cx="4.21348"
      cy="4.2244"
      rx="4.21348"
      ry="4.2244"
      transform="matrix(0.799741 0.600346 -0.59343 0.804886 100.312 345.011)"
      fill="black"
    />
    <ellipse
      cx="4.21348"
      cy="4.2244"
      rx="4.21348"
      ry="4.2244"
      transform="matrix(0.799741 0.600346 -0.59343 0.804886 132.674 301.118)"
      fill="black"
    />
    <ellipse
      cx="4.21348"
      cy="4.2244"
      rx="4.21348"
      ry="4.2244"
      transform="matrix(0.799741 0.600346 -0.59343 0.804886 278.301 103.599)"
      fill="black"
    />
    <ellipse
      cx="4.21348"
      cy="4.2244"
      rx="4.21348"
      ry="4.2244"
      transform="matrix(0.799741 0.600346 -0.59343 0.804886 294.938 81.0348)"
      fill="black"
    />
    <ellipse
      cx="4.21348"
      cy="4.2244"
      rx="4.21348"
      ry="4.2244"
      transform="matrix(0.799741 0.600346 -0.59343 0.804886 310.89 59.3974)"
      fill="black"
    />
    <path
      d="M294.469 349.75L297.656 308.692L297.496 308.572L277.972 335.053L282.371 338.355L281.629 339.361L271.272 331.587L272.014 330.58L276.413 333.882L297.301 305.55L292.903 302.248L293.645 301.242L304.481 309.377L302.297 338.121L302.457 338.241L316.135 319.689L312.137 316.687L312.878 315.681L322.435 322.855L321.693 323.861L317.695 320.859L295.708 350.68L294.469 349.75ZM315.162 365.284C313.216 363.823 311.71 362.047 310.644 359.954C309.578 357.862 308.939 355.611 308.728 353.201C308.563 350.785 308.813 348.368 309.477 345.95C310.169 343.551 311.286 341.306 312.829 339.213C314.372 337.12 316.182 335.395 318.26 334.037C320.365 332.7 322.577 331.777 324.899 331.268C327.266 330.753 329.596 330.71 331.889 331.139C334.182 331.568 336.301 332.513 338.247 333.974C340.193 335.435 341.699 337.212 342.765 339.304C343.832 341.396 344.447 343.651 344.612 346.067C344.824 348.476 344.583 350.88 343.892 353.278C343.227 355.697 342.123 357.952 340.58 360.045C339.037 362.138 337.214 363.853 335.109 365.191C333.031 366.549 330.809 367.485 328.441 368C326.12 368.508 323.813 368.548 321.521 368.119C319.228 367.69 317.109 366.745 315.162 365.284ZM316.053 364.077C317.412 365.097 318.717 365.743 319.966 366.014C321.262 366.279 322.599 366.094 323.977 365.461C325.381 364.849 326.909 363.703 328.56 362.025C330.211 360.347 332.095 358.073 334.212 355.202C336.329 352.331 337.946 349.857 339.064 347.779C340.182 345.7 340.82 343.908 340.979 342.401C341.183 340.888 340.964 339.556 340.321 338.407C339.704 337.277 338.716 336.202 337.357 335.181C335.997 334.161 334.679 333.505 333.403 333.214C332.154 332.943 330.827 333.114 329.422 333.726C328.045 334.359 326.53 335.515 324.879 337.193C323.228 338.871 321.344 341.145 319.227 344.016C317.111 346.887 315.493 349.361 314.375 351.439C313.257 353.517 312.596 355.313 312.391 356.827C312.213 358.36 312.432 359.692 313.049 360.821C313.692 361.971 314.693 363.056 316.053 364.077ZM337.56 381.347L338.302 380.341L343.501 384.244L364.389 355.912L361.35 353.63C360.058 352.743 358.655 352.399 357.142 352.597C355.65 352.769 354.179 353.331 352.729 354.286C351.28 355.24 349.979 356.472 348.824 357.981L347.425 356.931L354.694 347.071L380.606 366.522L373.337 376.382L371.937 375.331C373.077 373.729 373.889 372.066 374.371 370.344C374.854 368.623 374.925 367.009 374.586 365.504C374.293 363.992 373.48 362.736 372.147 361.735L369.748 359.934L348.859 388.266L354.057 392.168L353.315 393.174L337.56 381.347ZM359.676 397.949L360.418 396.943L377.933 410.091C379.265 411.091 380.672 411.543 382.152 411.445C383.659 411.368 385.14 410.875 386.596 409.967C388.052 409.06 389.347 407.865 390.481 406.382L391.881 407.433L384.908 416.89L359.676 397.949ZM364.84 400.888L386.47 371.55L391.829 375.572L370.198 404.91L364.84 400.888ZM382.36 401.474C383.441 399.951 384.112 398.621 384.371 397.482C384.631 396.343 384.437 395.259 383.787 394.23C383.185 393.194 382.057 392.056 380.404 390.815L381.146 389.809C382.799 391.05 384.197 391.849 385.341 392.208C386.511 392.586 387.566 392.503 388.506 391.958C389.473 391.433 390.49 390.447 391.558 388.998L392.958 390.049L383.76 402.524L382.36 401.474ZM398.599 392.845C399.541 391.51 400.155 390.116 400.44 388.663C400.744 387.183 400.677 385.757 400.239 384.386C399.827 383.035 398.955 381.859 397.622 380.858L381.307 368.611L382.049 367.605L406.081 385.646L399.998 393.896L398.599 392.845Z"
      fill="white"
    />
    <path
      d="M267.043 336.227L383.279 423.482L381.795 425.494L265.56 338.239L267.043 336.227Z"
      fill="white"
    />
  </svg>
