 <svg
    width="496"
    height="436"
    viewBox="0 0 496 436"
    fill="none"
    xmlns="http://www.w3.org/2000/svg"
  >
    <path d="M12.5 418.25L1.5 434.5L20.75 426.5L12.5 418.25Z" fill="black" />
    <path d="M477 1.5L23.5 402H40L486 10.5L477 1.5Z" fill="black" />
    <path d="M40 418.5L495 19.5L486 10.5L40 402V418.5Z" fill="#FFFF00" />
    <path
      d="M23.5 402L477 1.5L486 10.5M23.5 402H40M23.5 402L12.5 418.25M40 418.5L495 19.5L486 10.5M40 418.5L20.75 426.5M40 418.5V402M40 402L486 10.5M12.5 418.25L1.5 434.5L20.75 426.5M12.5 418.25L20.75 426.5"
      stroke="black"
    />
  </svg>
